<?xml version="1.0" encoding="UTF-8" standalone="no"?>
<svg width="1024px" height="1024px" viewBox="0 0 1024 1024" version="1.1" xmlns="http://www.w3.org/2000/svg" xmlns:xlink="http://www.w3.org/1999/xlink" xmlns:sketch="http://www.bohemiancoding.com/sketch/ns">
    <title>Untitled 2</title>
    <description>Created with Sketch (http://www.bohemiancoding.com/sketch)</description>
    <defs>
        <path id="path-1" d="M0,0.750942853 L1023.38737,0.750942853 L1023.38737,985.750943 L0,985.750943 L0,0.750942853 Z"></path>
    </defs>
    <g id="Page-1" stroke="none" stroke-width="1" fill="none" fill-rule="evenodd" sketch:type="MSPage">
        <g id="Imported-Layers" sketch:type="MSLayerGroup">
            <path d="M638.250575,513.20365 C638.250575,583.23184 581.567862,640.019955 511.637287,640.019955 C441.706713,640.019955 385.019577,583.23184 385.019577,513.20365 C385.019577,443.157738 441.706713,386.382914 511.637287,386.382914 C581.567862,386.382914 638.250575,443.157738 638.250575,513.20365" id="Fill-1" fill="#4C4C4E" sketch:type="MSShapeGroup"></path>
            <path d="M511.637066,186.223638 C331.629809,186.223638 185.182327,332.901163 185.182327,513.193903 C185.182327,693.493288 331.629809,840.175244 511.637066,840.175244 C691.6399,840.175244 838.173636,693.493288 838.173636,513.193903 C838.173636,332.901163 691.6399,186.223638 511.637066,186.223638 M511.637066,848.703651 C326.934448,848.703651 176.669636,698.18945 176.669636,513.193903 C176.669636,328.200571 326.934448,177.693016 511.637066,177.693016 C696.333049,177.693016 846.697386,328.200571 846.697386,513.193903 C846.697386,698.18945 696.333049,848.703651 511.637066,848.703651" id="Fill-3" fill="#4C4C4E" sketch:type="MSShapeGroup"></path>
            <path d="M511.637066,159.570261 C316.955425,159.570261 158.571597,318.207493 158.571597,513.195675 C158.571597,708.188287 316.955425,866.832164 511.637066,866.832164 C706.309861,866.832164 864.813118,708.188287 864.813118,513.195675 C864.813118,318.207493 706.309861,159.570261 511.637066,159.570261 M511.637066,875.362786 C312.262276,875.362786 150.058906,712.891095 150.058906,513.195675 C150.058906,313.50247 312.262276,151.039639 511.637066,151.039639 C711.011857,151.039639 873.330232,313.50247 873.330232,513.195675 C873.330232,712.891095 711.011857,875.362786 511.637066,875.362786" id="Fill-5" fill="#4C4C4E" sketch:type="MSShapeGroup"></path>
            <path d="M511.637066,262.770189 C373.768625,262.770189 261.606345,375.112569 261.606345,513.204093 L287.153265,513.204093 C287.153265,389.01941 387.651235,288.35984 511.637066,288.35984 C635.627321,288.35984 736.123079,389.01941 736.123079,513.204093 C736.123079,597.108112 690.195684,670.230895 622.175986,708.859041 L630.575883,733.434144 C708.579027,690.991474 761.669999,608.195041 761.669999,513.204093 C761.669999,375.112569 649.501083,262.770189 511.637066,262.770189" id="Fill-7" fill="#4C4C4E" sketch:type="MSShapeGroup"></path>
            <path d="M872.907141,803.760718 C787.868696,908.806325 657.128446,977.219656 511.636403,977.219656 C255.760256,977.219656 48.352705,769.4588 48.352705,513.203428 C48.352705,256.921474 255.760256,49.1761241 511.636403,49.1761241 C542.81864,49.1761241 576.590735,52.9485597 606.036817,58.8276226 L607.764126,50.5362388 C576.714588,44.0723709 544.568066,40.647717 511.636403,40.647717 C251.485111,40.647717 39.8378022,252.635119 39.8378022,513.203428 C39.8378022,773.767307 251.485111,985.750278 511.636403,985.750278 C660.098709,985.750278 792.694545,916.65246 879.349716,808.939787 L872.907141,803.760718 Z" id="Fill-9" fill="#4C4C4E" sketch:type="MSShapeGroup"></path>
            <g id="Group-13">
                <mask id="mask-2" sketch:name="Clip 12" fill="white">
                    <use xlink:href="#path-1"></use>
                </mask>
                <g id="Clip-12"></g>
                <path d="M41.7365149,668.323855 C26.5600829,620.739774 17.0322384,565.825693 17.0322384,513.204314 C17.0322384,239.59308 238.459521,17.8101936 511.637508,17.8101936 C784.817707,17.8101936 1006.35115,239.59308 1006.35115,513.204314 C1006.35115,534.709191 1004.41152,558.396011 1001.76195,579.185387 L1018.71435,581.467013 C1021.7023,559.10708 1023.38759,536.348417 1023.38759,513.204314 C1023.38759,230.632715 793.757249,0.75116437 511.637508,0.75116437 C229.517768,0.75116437 0.000221166307,230.632715 0.000221166307,513.204314 C0.000221166307,569.210474 9.14987127,623.092285 25.8059058,673.58267 L41.7365149,668.323855 Z" id="Fill-11" fill="#4C4C4E" sketch:type="MSShapeGroup" mask="url(#mask-2)"></path>
            </g>
            <path d="M511.637066,65.2372189 C510.862984,65.2372189 510.108807,65.2925982 509.332513,65.2970285 C503.013792,65.3280409 496.717187,65.4786725 490.462604,65.7732902 C487.58523,65.9084156 484.72555,66.1432237 481.8526,66.3381587 C477.7566,66.6061944 473.653965,66.8875211 469.580081,67.2707456 C466.138733,67.5897302 462.726137,67.990676 459.313541,68.3916219 C455.976142,68.781492 452.640954,69.1957289 449.327883,69.6631299 C445.457472,70.2014164 441.615813,70.7906518 437.771943,71.4241906 C435.193144,71.858364 432.632038,72.3324105 430.073144,72.8042419 C425.634336,73.6260702 421.202163,74.4700502 416.812012,75.4225736 C415.606656,75.6839637 414.421204,75.9785814 413.224695,76.2554778 C303.324945,100.978997 208.787407,166.24014 145.94079,255.476075 L149.623209,258.07447 C174.068721,223.316227 202.93977,192.622823 236.085965,166.16704 L247.128798,179.8723 C185.843615,228.758902 138.26853,294.181752 111.237584,369.335847 L114.973083,370.67824 C141.610353,295.435539 188.340582,231.612042 249.528453,182.847275 L261.203822,197.338921 C174.763183,266.235159 117.127243,369.851982 109.572202,486.956978 L113.345299,487.200647 C120.621671,370.713683 177.664885,268.490203 263.472988,200.158833 L273.799243,212.96695 C185.496384,283.287543 128.727416,391.693564 128.727416,513.195675 C128.727416,545.771975 132.861014,577.37803 140.526638,607.595173 L143.963563,606.717965 C136.494777,576.977084 132.341273,545.258055 132.341273,513.195675 C132.341273,392.615075 188.493187,285.236893 275.955615,215.647307 L276.06841,215.789078 C340.770613,164.315157 422.586664,133.482197 511.637066,133.482197 C721.028479,133.482197 890.868721,303.481038 890.868721,513.204536 C890.868721,722.905881 721.028479,892.922444 511.637066,892.922444 C501.689006,892.922444 491.869222,892.417385 482.120211,891.657582 L482.104729,891.839226 C385.534673,884.391822 299.138267,840.693151 236.349152,774.366511 L233.854397,776.732313 C297.278258,843.710213 384.49298,887.887361 481.830483,895.438878 L480.585317,911.687155 C404.988461,905.854611 335.891684,879.290284 277.950535,837.166599 L275.831762,840.103915 C334.226302,882.449117 404.316116,909.589388 480.286742,915.477312 L478.873489,933.863228 C428.396703,929.980034 381.033939,917.34027 337.105887,897.21766 L335.495796,900.759718 C379.693671,920.977581 427.874751,933.934114 478.563857,937.857181 L477.205895,955.43013 C456.513576,953.830777 436.241472,950.76055 416.440453,946.394449 L415.515978,950.5634 C440.770958,956.110187 466.786751,959.638954 493.448349,960.702236 C498.1039,960.923753 502.805895,961.003499 507.514526,961.058879 C508.892392,961.07217 510.256988,961.160776 511.637066,961.160776 C758.233075,961.160776 958.266941,761.274852 958.961403,514.464968 C958.961403,514.039655 958.992366,513.620988 958.992366,513.204536 L958.992366,513.195675 C958.992366,265.792125 758.655502,65.2372189 511.637066,65.2372189" id="Fill-14" fill="#4C4C4E" sketch:type="MSShapeGroup"></path>
            <path d="M809.730101,564.615324 C798.589954,629.391344 766.885764,687.205083 721.595328,731.025589 L716.49081,722.740851 C746.147,693.653445 769.595051,658.2816 784.831198,618.82498 L780.372486,618.82498 C765.44376,656.781929 742.780848,690.888912 714.234913,719.072528 L709.130395,710.774499 C723.4863,696.373675 736.227691,680.377927 747.204175,663.1439 L744.256028,660.80911 C733.556002,677.702001 721.137514,693.383194 707.12884,707.524844 L707.082395,707.460604 C657.189488,757.820293 588.059535,789.014327 511.63773,789.014327 C359.54166,789.014327 236.259138,665.527423 236.259138,513.203428 C236.259138,360.866142 359.54166,237.383669 511.63773,237.383669 C524.018619,237.383669 536.198248,238.285243 548.145652,239.86909 L548.192097,239.807065 C619.166576,249.243692 681.586343,285.738629 724.815509,338.58374 L727.387673,335.903384 C683.926283,282.974096 621.499881,246.224415 550.569635,236.267223 L556.496892,227.46635 C602.023976,234.605845 644.025669,252.495563 679.914326,278.364326 L681.955691,274.696003 C646.135596,249.000024 604.33074,231.143533 558.985013,223.753724 L564.887941,215.00823 C584.096235,218.437314 602.66757,223.751508 620.442706,230.64512 L622.665427,226.786292 C588.234257,213.382295 550.817341,205.950397 511.63773,205.950397 C342.206645,205.950397 204.877851,343.51028 204.877851,513.194567 C204.877851,682.88107 342.206645,820.452029 511.63773,820.452029 C663.550231,820.452029 789.592909,709.830836 814.080442,564.650767 C812.5743,564.670703 811.116814,564.670703 809.730101,564.615324" id="Fill-16" fill="#4C4C4E" sketch:type="MSShapeGroup"></path>
        </g>
    </g>
</svg>
