<?xml version="1.0" encoding="UTF-8" standalone="no"?>
<svg width="1024px" height="1024px" viewBox="0 0 1024 1024" version="1.1" xmlns="http://www.w3.org/2000/svg" xmlns:xlink="http://www.w3.org/1999/xlink" xmlns:sketch="http://www.bohemiancoding.com/sketch/ns">
    <title>Circle 1 split</title>
    <description>Created with Sketch (http://www.bohemiancoding.com/sketch)</description>
    <defs></defs>
    <g id="Page-1" stroke="none" stroke-width="1" fill="none" fill-rule="evenodd" sketch:type="MSPage">
        <g id="Circle-1-split" sketch:type="MSLayerGroup">
            <g id="Even" transform="translate(40.000000, 40.000000)" sketch:type="MSShapeGroup">
                <path d="M471.637066,145.223638 C291.629809,145.223638 145.182327,291.901163 145.182327,472.193903 C145.182327,652.493288 291.629809,799.175244 471.637066,799.175244 C651.6399,799.175244 798.173636,652.493288 798.173636,472.193903 C798.173636,291.901163 651.6399,145.223638 471.637066,145.223638 M471.637066,807.703651 C286.934448,807.703651 136.669636,657.18945 136.669636,472.193903 C136.669636,287.200571 286.934448,136.693016 471.637066,136.693016 C656.333049,136.693016 806.697386,287.200571 806.697386,472.193903 C806.697386,657.18945 656.333049,807.703651 471.637066,807.703651" id="Fill-3" fill="#FFF100"></path>
                <path d="M471.637066,118.570261 C276.955425,118.570261 118.571597,277.207493 118.571597,472.195675 C118.571597,667.188287 276.955425,825.832164 471.637066,825.832164 C666.309861,825.832164 824.813118,667.188287 824.813118,472.195675 C824.813118,277.207493 666.309861,118.570261 471.637066,118.570261 M471.637066,834.362786 C272.262276,834.362786 110.058906,671.891095 110.058906,472.195675 C110.058906,272.50247 272.262276,110.039639 471.637066,110.039639 C671.011857,110.039639 833.330232,272.50247 833.330232,472.195675 C833.330232,671.891095 671.011857,834.362786 471.637066,834.362786" id="Fill-5" fill="#FFF100"></path>
                <path d="M832.907141,762.760718 C747.868696,867.806325 617.128446,936.219656 471.636403,936.219656 C215.760256,936.219656 8.35270497,728.4588 8.35270497,472.203428 C8.35270497,215.921474 215.760256,8.17612406 471.636403,8.17612406 C502.81864,8.17612406 536.590735,11.9485597 566.036817,17.8276226 L567.764126,9.53623884 C536.714588,3.07237086 504.568066,-0.352282975 471.636403,-0.352282975 C211.485111,-0.352282975 -0.16219784,211.635119 -0.16219784,472.203428 C-0.16219784,732.767307 211.485111,944.750278 471.636403,944.750278 C620.098709,944.750278 752.694545,875.65246 839.349716,767.939787 L832.907141,762.760718 Z" id="Fill-9" fill="#E32029"></path>
                <path d="M471.637066,221.770189 C333.768625,221.770189 221.606345,334.112569 221.606345,472.204093 L247.153265,472.204093 C247.153265,348.01941 347.651235,247.35984 471.637066,247.35984 C595.627321,247.35984 696.123079,348.01941 696.123079,472.204093 C696.123079,556.108112 650.195684,629.230895 582.175986,667.859041 L590.575883,692.434144 C668.579027,649.991474 721.669999,567.195041 721.669999,472.204093 C721.669999,334.112569 609.501083,221.770189 471.637066,221.770189" id="Fill-7" fill="#51B748"></path>
            </g>
        </g>
    </g>
</svg>